<?xml version="1.0" encoding="UTF-8" standalone="no"?>
<!-- Created with Inkscape (http://www.inkscape.org/) -->

<svg
   xmlns:dc="http://purl.org/dc/elements/1.1/"
   xmlns:cc="http://creativecommons.org/ns#"
   xmlns:rdf="http://www.w3.org/1999/02/22-rdf-syntax-ns#"
   xmlns:svg="http://www.w3.org/2000/svg"
   xmlns="http://www.w3.org/2000/svg"
   xmlns:sodipodi="http://sodipodi.sourceforge.net/DTD/sodipodi-0.dtd"
   xmlns:inkscape="http://www.inkscape.org/namespaces/inkscape"
   version="1.1"
   id="svg2"
   width="21.000229"
   height="19.830982"
   viewBox="0 0 21.000229 19.830982"
   sodipodi:docname="barco.svg"
   inkscape:version="0.92.3 (2405546, 2018-03-11)">
  <metadata
     id="metadata8">
    <rdf:RDF>
      <cc:Work
         rdf:about="">
        <dc:format>image/svg+xml</dc:format>
        <dc:type
           rdf:resource="http://purl.org/dc/dcmitype/StillImage" />
        <dc:title></dc:title>
      </cc:Work>
    </rdf:RDF>
  </metadata>
  <defs
     id="defs6" />
  <sodipodi:namedview
     pagecolor="#ffffff"
     bordercolor="#666666"
     borderopacity="1"
     objecttolerance="10"
     gridtolerance="10"
     guidetolerance="10"
     inkscape:pageopacity="0"
     inkscape:pageshadow="2"
     inkscape:window-width="1366"
     inkscape:window-height="717"
     id="namedview4"
     showgrid="false"
     inkscape:zoom="27.07884"
     inkscape:cx="10.500115"
     inkscape:cy="9.9154911"
     inkscape:window-x="0"
     inkscape:window-y="0"
     inkscape:window-maximized="1"
     inkscape:current-layer="layer2"
     inkscape:pagecheckerboard="true"
     fit-margin-top="0"
     fit-margin-left="0"
     fit-margin-right="0"
     fit-margin-bottom="0" />
  <g
     inkscape:groupmode="layer"
     id="layer2"
     inkscape:label="Layer 1"
     style="display:inline"
     transform="translate(-89.072588,-88.993911)">
    <g
       id="g834"
       transform="matrix(0.13599753,0,0,0.13599753,86.031062,85.457975)" />
    <path
       style="display:inline;fill:#1bb1e6;stroke-width:0.13599753"
       d="m 99.494818,88.993911 -0.06225,4.633669 c -0.02572,-0.155221 3.015132,1.392552 4.042602,2.176128 l -0.44575,0.637966 c -1.24137,-0.41017 -2.26053,-1.681049 -3.651741,-2.127922 l 0.117139,9.522218 c 0.691242,-0.0477 1.134992,-1.07657 1.632232,-1.09269 0.47895,0.46623 1.29789,1.43957 1.9579,0.73073 0.40534,-0.68264 1.0683,-0.36615 1.3368,0.20017 0.4131,-0.69375 0.64013,-1.56948 0.99209,-2.32672 0.35348,-0.95084 0.78819,-1.887352 0.9983,-2.881525 0.0898,-0.673379 -0.43981,-1.139737 -0.87965,-1.553051 l -2.05732,-1.109176 -0.002,-1.399506 1.07635,0.61252 c 0.0325,-0.758649 -0.007,-1.884031 -0.0171,-2.643326 l -0.95199,-0.08128 V 90.78801 l -1.9093,-0.02613 v -1.767968 z"
       id="path838"
       inkscape:connector-curvature="0"
       sodipodi:nodetypes="ccccccccccccccccccccc" />
  </g>
  <g
     inkscape:groupmode="layer"
     id="layer8"
     inkscape:label="Layer 7"
     style="display:inline"
     transform="translate(-89.072588,-88.993911)">
    <path
       style="display:inline;fill:#1a94d1;stroke-width:0.13599753"
       d="m 91.400121,108.60731 c -0.929307,-0.32508 -1.497441,-0.75562 -1.890467,-1.43262 -0.50003,-0.86131 -0.563741,-1.4488 -0.228404,-2.10611 0.155024,-0.30387 0.338112,-0.58726 0.406862,-0.62975 0.06875,-0.0425 0.286202,0.19781 0.483224,0.534 0.351207,0.59929 0.92182,1.02077 1.38195,1.02077 0.218357,0 0.21837,-0.0149 2.32e-4,-0.25591 -0.429062,-0.4741 -0.543141,-1.21504 -0.277707,-1.80367 0.130055,-0.2884 0.283374,-0.52437 0.340713,-0.52437 0.05734,0 0.23711,0.21497 0.399493,0.47771 0.162383,0.26274 0.408146,0.53814 0.546141,0.61199 0.375656,0.20105 1.120742,0.16194 1.461446,-0.0767 0.657903,-0.46082 0.643264,-0.57662 -0.389604,-3.08202 -1.387556,-3.365764 -1.549048,-3.891663 0.590913,-4.958525 l 1.183189,-0.58987 0.154799,0.551961 c 1.198533,0.06893 2.679187,-1.877081 3.814778,-2.030454 l 0.117139,9.522218 -0.305995,-0.0878 c -0.30711,-0.0881 -0.860783,-0.62101 -1.130272,-1.08785 -0.130737,-0.22647 -0.173484,-0.20271 -0.455121,0.25299 -0.309119,0.50016 -0.891189,0.90433 -1.302387,0.90433 -0.118435,0 -0.340311,-0.21181 -0.493058,-0.4707 -0.217243,-0.3682 -0.327304,-0.4444 -0.505404,-0.34992 -0.125226,0.0664 -0.334781,0.15393 -0.465679,0.19444 -0.130897,0.0405 -0.237995,0.14039 -0.237995,0.22195 0,0.0816 0.05066,0.11698 0.112584,0.0787 0.06192,-0.0383 0.340363,0.20291 0.618758,0.53596 0.439128,0.52534 0.575929,0.60555 1.032813,0.60555 0.457727,0 0.596638,-0.0819 1.061573,-0.62582 l 0.534932,-0.62582 0.303789,0.49154 c 0.609942,0.98691 1.39127,1.04407 2.269314,0.16602 l 0.59408,-0.59407 0.28417,0.4598 c 0.33957,0.54943 0.63868,0.72835 1.21765,0.72835 0.33994,0 0.55541,-0.13477 1.01395,-0.63418 l 0.58228,-0.63418 0.20999,0.40609 c 0.27756,0.53673 0.53162,0.73356 1.0529,0.81571 0.7082,0.11162 1.06489,-0.0577 1.4713,-0.69859 l 0.38126,-0.60119 0.30803,0.54806 c 0.35222,0.62669 0.31297,1.12872 -0.13776,1.76171 l -0.28236,0.39654 h 0.34452 c 0.42404,0 1.2129,-0.67097 1.44356,-1.22782 0.15758,-0.38045 0.18966,-0.3963 0.40591,-0.20059 0.12915,0.11687 0.34385,0.4543 0.47712,0.74984 0.22831,0.50632 0.2292,0.57165 0.0154,1.13148 -0.31369,0.82137 -1.05088,1.63912 -1.81838,2.01709 l -0.64563,0.31795 -7.683857,0.0323 c -7.029673,0.0296 -7.741995,0.012 -8.366692,-0.20655 z m 3.994345,-14.129069 -1.067554,0.942413 v -3.162802 h 0.951982 v -1.495973 h 2.311958 v -1.767968 h 1.903966 l -0.06225,4.633669 c -0.261674,0 0.164597,-0.256072 -2.067218,1.033628 l -1.957248,1.131037 z"
       id="path836"
       inkscape:connector-curvature="0"
       sodipodi:nodetypes="cscccsccssccssccccccsscccssssccscccsccsssccccsscscccsccccccccccscc" />
  </g>
</svg>
